#!OML:ASF H:\Male1\Project 1\Capture day 1\Session 1\Male1.ASF
:FULLY-SPECIFIED
:DEGREES
308
root -9.25111 14.9947 6.89573 179.776 -43.6956 -176.412
lowerback 17.9376 2.9328 -6.11938
upperback 12.0135 1.32235 -2.51642
thorax 2.77531 -0.284382 0.534545
lowerneck -8.27404 -4.18003 0.991738
upperneck 9.03795 -7.29245 11.1471
head 4.47132 -3.08491 2.78322
rclavicle 1.03368e-014 2.70347e-014
rhumerus -21.8372 37.022 -99.6943
rradius 90.3066
rwrist -39.7544
rhand -24.1624 -15.9399
rfingers 7.12502
rthumb 2.32053 -45.907
lclavicle 1.03368e-014 2.70347e-014
lhumerus -35.5783 -2.4957 84.0268
lradius 102.904
lwrist 34.7537
lhand -13.2432 22.4592
lfingers 7.12502
lthumb 12.8588 52.0431
rfemur -23.7742 14.6537 24.1539
rtibia 39.5011
rfoot -17.8796 -4.97064
rtoes -32.8366
lfemur -20.541 -18.1239 -11.9203
ltibia 36.4325
lfoot -19.5072 7.3077
ltoes -26.7059
309
root -9.30291 15.0071 6.92832 179.817 -41.2297 -176.698
lowerback 17.4558 2.98343 -6.51772
upperback 11.7704 1.37897 -2.64509
thorax 2.74941 -0.265276 0.620358
lowerneck -8.18211 -4.56418 0.203585
upperneck 9.37808 -7.89671 12.0126
head 4.65869 -3.36243 3.13192
rclavicle 5.1684e-014 -1.74931e-014
rhumerus -22.7473 37.153 -100.509
rradius 90.6546
rwrist -39.4608
rhand -24.2055 -16.2684
rfingers 7.12502
rthumb 2.2789 -46.236
lclavicle 5.1684e-014 -1.74931e-014
lhumerus -36.6862 -2.95378 83.7123
lradius 103.661
lwrist 34.9655
lhand -14.0872 22.5641
lfingers 7.12502
lthumb 12.045 52.1975
rfemur -23.971 14.5642 24.2719
rtibia 40.2825
rfoot -17.964 -5.89605
rtoes -33.7488
lfemur -19.3111 -16.9352 -12.5338
ltibia 35.9849
lfoot -19.6505 8.41203
ltoes -25.9949
310
root -9.35232 15.0236 6.95809 179.813 -38.7915 -176.931
lowerback 16.9882 3.04165 -6.82292
upperback 11.551 1.4595 -2.73679
thorax 2.74253 -0.231276 0.689889
lowerneck -7.93913 -5.00571 -0.5376
upperneck 9.55602 -8.56835 12.8621
head 4.78316 -3.68619 3.46718
rclavicle -3.26007e-014 -3.49861e-014
rhumerus -23.6258 37.2653 -101.243
rradius 90.9359
rwrist -39.1368
rhand -24.3759 -16.4371
rfingers 7.12502
rthumb 2.11434 -46.4064
lclavicle -3.26007e-014 -3.49861e-014
lhumerus -37.4726 -3.82864 83.4507
lradius 104.126
lwrist 35.0647
lhand -15.2993 22.6304
lfingers 7.12502
lthumb 10.876 52.3287
rfemur -24.0903 14.1937 24.4981
rtibia 41.0491
rfoot -18.2014 -7.56772
rtoes -34.1882
lfemur -18.0557 -16.0015 -13.0909
ltibia 35.446
lfoot -19.8295 9.62091
ltoes -24.8598
311
root -9.39975 15.0443 6.98473 179.815 -36.4014 -177.145
lowerback 16.5208 3.11752 -7.01204
upperback 11.3447 1.58173 -2.82729
thorax 2.75013 -0.170056 0.690775
lowerneck -7.56959 -5.51205 -1.16179
upperneck 9.60358 -9.33105 13.6843
head 4.85797 -4.06515 3.77148
rclavicle -4.69132e-014 3.18055e-014
rhumerus -24.4769 37.2581 -101.923
rradius 91.1579
rwrist -38.8518
rhand -24.677 -16.4448
rfingers 7.12502
rthumb 1.82352 -46.4168
lclavicle -4.69132e-014 3.18055e-014
lhumerus -37.9467 -5.18931 83.2134
lradius 104.293
lwrist 34.9371
lhand -16.9062 22.555
lfingers 7.12502
lthumb 9.32587 52.3287
rfemur -24.1495 13.5296 24.7638
rtibia 41.7758
rfoot -18.6575 -9.74795
rtoes -33.5461
lfemur -16.8101 -15.286 -13.6197
ltibia 34.8149
lfoot -20.0219 10.9294
ltoes -23.4499
312
root -9.44486 15.0671 7.00729 179.838 -34.0361 -177.33
lowerback 16.0367 3.21393 -7.11678
upperback 11.1351 1.74912 -2.9033
thorax 2.76237 -0.0802341 0.655444
lowerneck -7.12523 -6.06017 -1.65746
upperneck 9.59262 -10.1544 14.4158
head 4.90758 -4.48154 4.02408
rclavicle -6.83819e-014 6.36111e-015
rhumerus -25.3166 37.1544 -102.54
rradius 91.3304
rwrist -38.6643
rhand -25.0365 -16.29
rfingers 7.12502
rthumb 1.47634 -46.2647
lclavicle -6.83819e-014 6.36111e-015
lhumerus -38.1648 -6.91984 82.9873
lradius 104.195
lwrist 34.5583
lhand -18.7273 22.5856
lfingers 7.12502
lthumb 7.56835 52.4302
rfemur -24.2136 12.5925 25.0501
rtibia 42.4246
rfoot -19.294 -12.2096
rtoes -31.7639
lfemur -15.5987 -14.6828 -14.1078
ltibia 34.105
lfoot -20.2183 12.3168
ltoes -21.9797
313
root -9.4888 15.0902 7.02525 179.862 -31.6934 -177.495
lowerback 15.5567 3.32862 -7.1611
upperback 10.93 1.95138 -2.94908
thorax 2.77694 0.0302155 0.615386
lowerneck -6.70451 -6.63093 -2.05601
upperneck 9.62093 -11.0171 15.0235
head 4.97495 -4.91756 4.21772
rclavicle 4.21423e-014 3.81667e-014
rhumerus -26.127 36.9858 -103.037
rradius 91.4635
rwrist -38.5981
rhand -25.3566 -15.9974
rfingers 7.12502
rthumb 1.16716 -45.9739
lclavicle 4.21423e-014 3.81667e-014
lhumerus -38.2011 -8.86435 82.7812
lradius 103.901
lwrist 34.0402
lhand -20.4496 22.838
lfingers 7.12502
lthumb 5.90572 52.7357
rfemur -24.2629 11.4026 25.3238
rtibia 42.9687
rfoot -20.1334 -14.672
rtoes -28.8753
lfemur -14.3975 -14.1605 -14.5801
ltibia 33.3394
lfoot -20.4274 13.7738
ltoes -20.5336
314
root -9.53135 15.1125 7.03844 179.879 -29.3898 -177.633
lowerback 15.0933 3.43867 -7.15714
upperback 10.7253 2.15648 -2.94626
thorax 2.78402 0.145034 0.601104
lowerneck -6.36404 -7.19886 -2.42363
upperneck 9.7453 -11.8845 15.5061
head 5.08526 -5.35151 4.36238
rclavicle -6.36111e-015 1.59028e-014
rhumerus -26.9034 36.802 -103.379
rradius 91.5666
rwrist -38.6561
rhand -25.5787 -15.6532
rfingers 7.12502
rthumb 0.952615 -45.6309
lclavicle -6.36111e-015 1.59028e-014
lhumerus -38.1635 -10.837 82.6141
lradius 103.519
lwrist 33.5219
lhand -21.9531 23.3814
lfingers 7.12502
lthumb 4.45404 53.3146
rfemur -24.3027 9.96428 25.5777
rtibia 43.382
rfoot -21.0373 -16.9916
rtoes -25.6533
lfemur -13.2175 -13.6975 -15.0285
ltibia 32.5485
lfoot -20.6707 15.255
ltoes -19.0723
315
root -9.57271 15.1336 7.04658 179.909 -27.1567 -177.767
lowerback 14.6437 3.50358 -7.13704
upperback 10.5133 2.30876 -2.89347
thorax 2.77895 0.235856 0.638823
lowerneck -6.1184 -7.72217 -2.7961
upperneck 9.97947 -12.6954 15.8565
head 5.23887 -5.75253 4.46509
rclavicle -1.19271e-014 1.68569e-013
rhumerus -27.6484 36.6749 -103.575
rradius 91.6446
rwrist -38.8373
rhand -25.6709 -15.3639
rfingers 7.12502
rthumb 0.863611 -45.3419
lclavicle -1.19271e-014 1.68569e-013
lhumerus -38.1735 -12.6494 82.5205
lradius 103.152
lwrist 33.0815
lhand -23.1236 24.1625
lfingers 7.12502
lthumb 3.32371 54.1163
rfemur -24.3535 8.27688 25.7743
rtibia 43.6616
rfoot -21.7708 -19.1111
rtoes -23.1172
lfemur -12.0803 -13.3072 -15.4754
ltibia 31.7546
lfoot -20.9731 16.7299
ltoes -17.5325
316
root -9.61205 15.1534 7.04983 179.936 -25.0329 -177.89
lowerback 14.2376 3.48262 -7.10302
upperback 10.2926 2.35061 -2.78573
thorax 2.74772 0.274108 0.740415
lowerneck -5.93849 -8.17559 -3.0506
upperneck 10.2639 -13.3824 15.9142
head 5.38362 -6.09299 4.46412
rclavicle 1.98785e-014 -9.54166e-015
rhumerus -28.3589 36.6727 -103.65
rradius 91.7091
rwrist -39.1561
rhand -25.6632 -15.227
rfingers 7.12502
rthumb 0.871013 -45.2049
lclavicle 1.98785e-014 -9.54166e-015
lhumerus -38.3114 -14.1575 82.5213
lradius 102.878
lwrist 32.6924
lhand -23.9463 25.0361
lfingers 7.12502
lthumb 2.52922 55.0009
rfemur -24.3983 6.37201 25.9084
rtibia 43.8128
rfoot -22.26 -20.9249
rtoes -21.5209
lfemur -10.9885 -12.9913 -15.9084
ltibia 30.973
lfoot -21.3461 18.1481
ltoes -15.8645
317
root -9.64771 15.1715 7.04756 179.967 -22.942 -177.981
lowerback 13.8454 3.39385 -7.0623
upperback 10.0607 2.30751 -2.62752
thorax 2.70182 0.272126 0.901379
lowerneck -5.89372 -8.56272 -3.22504
upperneck 10.6899 -13.968 15.7216
head 5.56297 -6.37665 4.37314
rclavicle 3.10104e-014 4.6118e-014
rhumerus -29.0133 36.7975 -103.631
rradius 91.7749
rwrist -39.6134
rhand -25.5725 -15.2915
rfingers 7.12502
rthumb 0.958671 -45.2691
lclavicle 3.10104e-014 4.6118e-014
lhumerus -38.5997 -15.3337 82.6304
lradius 102.726
lwrist 32.3287
lhand -24.6137 25.8194
lfingers 7.12502
lthumb 1.88462 55.7908
rfemur -24.4559 4.39565 25.9887
rtibia 43.8529
rfoot -22.5966 -22.295
rtoes -20.4684
lfemur -9.94124 -12.6848 -16.2968
ltibia 30.205
lfoot -21.8305 19.4839
ltoes -13.9336
318
root -9.67915 15.1878 7.03933 179.995 -20.8607 -178.052
lowerback 13.473 3.26119 -7.00294
upperback 9.82929 2.20752 -2.44142
thorax 2.65081 0.242975 1.08673
lowerneck -5.96816 -8.87724 -3.34866
upperneck 11.224 -14.4527 15.3827
head 5.77168 -6.60525 4.22998
rclavicle -1.98785e-014 2.22639e-014
rhumerus -29.5814 36.9841 -103.549
rradius 91.848
rwrist -40.1695
rhand -25.4148 -15.539
rfingers 7.12502
rthumb 1.11096 -45.5159
lclavicle -1.98785e-014 2.22639e-014
lhumerus -38.9954 -16.2459 82.8232
lradius 102.677
lwrist 31.9498
lhand -25.1587 26.4561
lfingers 7.12502
lthumb 1.35827 56.4315
rfemur -24.5087 2.43647 26.0062
rtibia 43.7862
rfoot -22.8831 -23.2358
rtoes -19.6483
lfemur -8.91438 -12.3816 -16.6503
ltibia 29.4563
lfoot -22.4761 20.7112
ltoes -11.6054
319
root -9.70641 15.2028 7.02521 180.034 -18.7469 -178.113
lowerback 13.0952 3.11184 -6.90428
upperback 9.6064 2.08865 -2.2558
thorax 2.61608 0.205637 1.25088
lowerneck -6.14375 -9.10733 -3.43319
upperneck 11.822 -14.8234 14.9708
head 5.99774 -6.77464 4.06207
rclavicle -8.5875e-014 1.03368e-013
rhumerus -30.0471 37.1702 -103.442
rradius 91.928
rwrist -40.744
rhand -25.2509 -15.9111
rfingers 7.12502
rthumb 1.26928 -45.8871
lclavicle -8.5875e-014 1.03368e-013
lhumerus -39.4164 -16.9159 83.0694
lradius 102.685
lwrist 31.5327
lhand -25.7182 26.8784
lfingers 7.12502
lthumb 0.817948 56.8566
rfemur -24.546 0.607538 25.9466
rtibia 43.6188
rfoot -23.4281 -23.6817
rtoes -18.0196
lfemur -7.90566 -12.0663 -16.9799
ltibia 28.7257
lfoot -23.299 21.8434
ltoes -8.90839
320
root -9.72971 15.2148 7.00485 180.085 -16.5905 -178.153
lowerback 12.6897 2.95353 -6.74844
upperback 9.40106 1.96381 -2.07761
thorax 2.6188 0.166215 1.37533
lowerneck -6.38031 -9.23712 -3.49435
upperneck 12.4079 -15.0483 14.5341
head 6.21255 -6.8741 3.89348
rclavicle 4.21423e-014 1.90833e-014
rhumerus -30.4151 37.3459 -103.343
rradius 92.008
rwrist -41.2356
rhand -25.0927 -16.3283
rfingers 7.12502
rthumb 1.422 -46.3033
lclavicle 4.21423e-014 1.90833e-014
lhumerus -39.7965 -17.3331 83.3338
lradius 102.704
lwrist 31.1226
lhand -26.2729 27.2118
lfingers 7.12502
lthumb 0.282145 57.1913
rfemur -24.5929 -1.06214 25.8577
rtibia 43.3417
rfoot -23.9788 -24.0646
rtoes -16.5072
lfemur -6.90919 -11.7335 -17.2802
ltibia 28.0025
lfoot -24.2458 22.924
ltoes -6.08628
321
root -9.74967 15.2229 6.97746 180.126 -14.3711 -178.188
lowerback 12.2716 2.80366 -6.53594
upperback 9.21986 1.8508 -1.92068
thorax 2.65653 0.132471 1.44342
lowerneck -6.57253 -9.25215 -3.53265
upperneck 12.8332 -15.0851 14.1185
head 6.35111 -6.89212 3.75129
rclavicle 7.15625e-015 -6.04305e-014
rhumerus -30.714 37.4946 -103.279
rradius 92.0782
rwrist -41.5639
rhand -24.9367 -16.7165
rfingers 7.12502
rthumb 1.57273 -46.6905
lclavicle 7.15625e-015 -6.04305e-014
lhumerus -40.1163 -17.513 83.599
lradius 102.716
lwrist 30.845
lhand -26.6214 27.5544
lfingers 7.12502
lthumb -0.0543851 57.5342
rfemur -24.6125 -2.52966 25.7456
rtibia 42.9586
rfoot -24.5435 -24.6567
rtoes -15.1825
lfemur -5.86909 -11.4079 -17.5912
ltibia 27.2675
lfoot -25.3071 24.0075
ltoes -3.22737
322
root -9.76498 15.2283 6.94289 180.19 -12.1029 -178.261
lowerback 11.8234 2.6667 -6.31197
upperback 9.04925 1.75408 -1.79986
thorax 2.72313 0.106274 1.4648
lowerneck -6.70688 -9.16236 -3.61324
upperneck 13.0974 -14.9644 13.8294
head 6.42769 -6.84148 3.67632
rclavicle 1.74931e-014 -5.56597e-015
rhumerus -30.9761 37.5898 -103.27
rradius 92.126
rwrist -41.6975
rhand -24.7894 -17.0083
rfingers 7.12502
rthumb 1.71498 -46.9811
lclavicle 1.74931e-014 -5.56597e-015
lhumerus -40.379 -17.4881 83.8568
lradius 102.708
lwrist 30.7409
lhand -26.7772 27.8829
lfingers 7.12502
lthumb -0.204898 57.8626
rfemur -24.614 -3.73943 25.5791
rtibia 42.4739
rfoot -25.3903 -25.4894
rtoes -13.3176
lfemur -4.80452 -11.0948 -17.9517
ltibia 26.5002
lfoot -26.474 25.0951
ltoes -0.37068
